<svg width="420" height="95" viewBox="0 0 420 95" fill="none" xmlns="http://www.w3.org/2000/svg">
<path d="M52.4247 36.1847C50.6062 34.3766 48.2565 33.1937 45.7171 32.8079C43.1778 32.422 40.5811 32.8534 38.3046 34.0393C36.0282 35.2251 34.1906 37.1037 33.0589 39.4018C31.9273 41.6999 31.5607 44.2978 32.0123 46.8179C32.464 49.3379 33.7103 51.6487 35.5703 53.4143C37.4302 55.18 39.8067 56.3084 42.3544 56.6356C44.902 56.9628 47.488 56.4716 49.7363 55.2336C51.9847 53.9956 53.7782 52.0752 54.8562 49.7516L67.3013 55.4791C68.8646 52.1019 69.6742 48.4269 69.6742 44.7077C69.6742 40.9885 68.8646 37.3135 67.3013 33.9363L54.8562 39.6638C54.2582 38.3701 53.435 37.1922 52.4247 36.1847Z" fill="#4A4949"/>
<path d="M71.8158 16.8555C65.8717 10.9485 58.1922 7.08464 49.8935 5.82548C41.5948 4.56631 33.1093 5.97747 25.6706 9.85385C18.2318 13.7302 12.2273 19.8698 8.52992 27.3802C4.83252 34.8906 3.63486 43.3804 5.11103 51.6157C6.5872 59.8509 10.6603 67.4024 16.7382 73.1726C22.8161 78.9427 30.5822 82.6308 38.9076 83.7008C47.233 84.7708 55.6839 83.1668 63.0319 79.1222C70.3799 75.0775 76.2421 68.8029 79.7664 61.2103L67.3002 55.4793C64.8363 60.8021 60.6214 65.1263 55.354 67.7351C50.0866 70.344 44.0829 71.081 38.3376 69.824C32.5924 68.567 27.4505 65.3915 23.7641 60.8237C20.0777 56.2558 18.0679 50.5698 18.0679 44.7079C18.0679 38.846 20.0777 33.16 23.7641 28.5922C27.4505 24.0243 32.5924 20.8488 38.3376 19.5918C44.0829 18.3348 50.0866 19.0718 55.354 21.6807C60.6214 24.2896 64.8363 28.6137 67.3002 33.9365L79.7664 28.2021C77.8077 23.9826 75.1161 20.1413 71.8158 16.8555Z" fill="#4A4949"/>
<path d="M138.529 22.0953C146.683 22.0953 153.104 26.6759 153.967 33.33H165.935C164.293 20.798 153.181 12.2383 138.529 12.2383C122.656 12.2383 108.432 22.6128 108.432 43.187C108.432 63.7612 122.396 74.1287 138.529 74.1287C153.451 74.1287 164.552 65.5689 165.766 53.037H154.318C153.265 59.6037 146.855 64.1843 138.529 64.1843C127.947 64.1843 119.968 56.9253 119.968 43.18C119.968 29.4347 127.947 22.0953 138.529 22.0953Z" fill="#4A4949"/>
<path d="M188.809 29.1829C177.445 29.1829 170.073 35.9244 169.55 44.568H179.094C179.266 40.6763 182.648 37.1342 188.287 37.1342C193.925 37.1342 197.223 40.1588 197.223 44.3932C197.223 46.1205 196.17 47.3339 194.013 47.3339H185.943C176.14 47.3339 169.547 52.6068 169.547 61.0791C169.547 68.5969 175.445 74.1321 184.118 74.1321C190.364 74.1321 195.395 71.2788 197.22 66.9535V73.4292H207.714V45.4212C207.717 35.5782 199.911 29.1829 188.809 29.1829ZM197.23 55.03C197.23 61.6001 193.325 66.2681 186.648 66.2681C182.655 66.2681 179.88 64.0198 179.88 60.649C179.88 56.8447 182.915 54.3551 187.427 54.3551H197.23V55.03Z" fill="#4A4949"/>
<path d="M238.926 29.1829C233.115 29.1829 228.344 31.6025 225.74 35.3195V29.8752H215.158V91.0663H225.74V68.6878C228.168 72.0586 232.852 74.1321 238.143 74.1321C250.985 74.1321 259.223 64.9709 259.223 51.6592C259.223 38.3475 251.504 29.1829 238.926 29.1829ZM236.933 64.9709C229.733 64.9709 225.049 59.698 225.049 51.6592C225.049 43.6205 229.733 38.344 236.933 38.344C243.95 38.344 248.641 43.617 248.641 51.6592C248.641 59.7015 243.957 64.9709 236.933 64.9709Z" fill="#4A4949"/>
<path d="M279.493 16.7349H268.827V29.8752H260.248V38.7776H268.837V58.2294C268.837 67.9081 275.083 73.4432 284.626 73.4432H291.643V63.8485H285.837C281.847 63.8485 279.503 61.6002 279.503 57.2049V38.7776H291.65V29.8752H279.493V16.7349Z" fill="#4A4949"/>
<path d="M325.774 53.6488C325.774 60.0442 321.61 64.7122 315.624 64.7122C310.157 64.7122 306.501 60.5617 306.501 54.5964V29.8752H295.846V56.8448C295.846 67.0444 302.267 74.1356 312.154 74.1356C318.399 74.1356 323.343 71.4537 325.774 66.6983V73.4293H336.441V29.8752H325.774V53.6488Z" fill="#4A4949"/>
<path d="M354.707 37.5678V29.8752H344.051V73.4293H354.717V52.8691C354.717 44.5681 357.408 38.7777 364.19 38.7777H371.046V29.8752H365.927C360.261 29.8752 356.878 32.0362 354.707 37.5678Z" fill="#4A4949"/>
<path d="M394.065 65.3171C387.3 65.3171 382.788 60.8204 382.009 53.8201H414.289C414.377 52.953 414.464 51.6557 414.464 50.1871C414.464 39.8161 407.871 29.1829 393.212 29.1829C378.901 29.1829 371.785 39.9875 371.785 51.4844C371.785 62.8974 379.767 74.1356 394.079 74.1356C404.837 74.1356 412.987 68.1703 414.636 58.9182H404.226C403.086 63.0687 399.531 65.3171 394.065 65.3171ZM393.198 37.1342C399.514 37.1342 403.345 41.2847 403.78 46.8164H382.269C383.395 40.2462 387.209 37.1342 393.198 37.1342Z" fill="#4A4949"/>
</svg>
